<svg 
 xmlns="http://www.w3.org/2000/svg"
 xmlns:xlink="http://www.w3.org/1999/xlink"
 width="12px" height="12px">
<path fill-rule="evenodd"  fill="rgb(255, 0, 0)"
 d="M6.992,5.997 L11.792,1.197 C12.67,0.922 12.67,0.476 11.792,0.201 C11.517,0.73 11.71,0.73 10.796,0.201 L5.996,5.0 L1.196,0.201 C0.921,0.73 0.474,0.73 0.199,0.201 C0.74,0.476 0.74,0.922 0.199,1.197 L5.0,5.997 L0.199,10.796 C0.74,11.71 0.74,11.517 0.199,11.792 C0.337,11.930 0.518,11.999 0.697,11.999 C0.878,11.999 1.58,11.930 1.196,11.792 L5.996,6.992 L10.795,11.792 C10.933,11.930 11.113,11.999 11.293,11.999 C11.474,11.999 11.654,11.930 11.791,11.792 C12.66,11.517 12.66,11.71 11.791,10.796 L6.992,5.997 Z"/>
</svg>